Haywire (2011) 475 MB R5 { BLOVES )

Imdb: 
http://www.imdb.com/title/tt1506999/

Plot:
A black ops super soldier seeks payback after she is betrayed and set up during a mission.


Notes:
READNFO... WELL CAM AUDIO... IS NOT GOOD BUT WILL DO FOR NOW.... OTHER THAN OUT VIDEO IS SPOT ON...
ADDED FEW FILTERS TO THE VIDEO TO MAKE IT LOOK NICE :) SO ENJOY....




Anything to offer email us @: 26k@hushmail.me
Video
ID : 0
Format : MPEG-4 Visual
Format profile : Advanced Simple@L5
Format settings, BVOP : 2
Format settings, QPel : No
Format settings, GMC : No warppoints
Format settings, Matrix : Default (H.263)
Muxing mode : Packed bitstream
Codec ID : XVID
Codec ID/Hint : XviD
Duration : 1h 28mn
Bit rate : 2 714 Kbps
Width : 720 pixels
Height : 528 pixels
Display aspect ratio : 4:3
Frame rate : 25.000 fps
Color space : YUV
Chroma subsampling : 4:2:0
Bit depth : 8 bits
Scan type : Progressive
Compression mode : Lossy
Bits/(Pixel*Frame) : 0.286
Stream size : 1.69 GiB (89%)
Writing library : XviD 64

Audio
ID : 1
Format : AC-3
Format/Info : Audio Coding 3
Mode extension : CM (complete main)
Codec ID : 2000
Duration : 1h 28mn
Bit rate mode : Constant
Bit rate : 320 Kbps
Channel(s) : 2 channels
Channel positions : Front: L R
Sampling rate : 48.0 KHz
Bit depth : 16 bits
Compression mode : Lossy
Stream size : 204 MiB (11%)
Alignment : Aligned on interleaves
Interleave, duration : 64 ms (1.60 video frames)
Interleave, preload duration : 192 ms
Title : HAYWIRE 